<?xml version="1.0" encoding="utf-8"?>
<!-- Generator: Adobe Illustrator 25.0.1, SVG Export Plug-In . SVG Version: 6.00 Build 0)  -->
<svg version="1.1" id="Capa_1" xmlns="http://www.w3.org/2000/svg" xmlns:xlink="http://www.w3.org/1999/xlink" x="0px" y="0px"
	 viewBox="0 0 600 300" style="enable-background:new 0 0 600 300;" xml:space="preserve">
<style type="text/css">
	.st0{fill:#FFFFFF;}
	.st1{fill:#A0C7FA;stroke:#A0C7FA;stroke-miterlimit:10;}
	.st2{clip-path:url(#SVGID_2_);}
	.st3{fill:#A0C7FA;}
	.st4{fill:#5956E0;}
</style>
<rect x="-60" y="-30" class="st0" width="720" height="360"/>
<rect x="-60" y="-30" class="st0" width="720" height="360"/>
<path class="st1" d="M485.6,63.9c-36.7,0.9-37.4,1.6-38.3,38.4c-0.9-36.8-1.6-37.5-38.3-38.4c36.7-0.9,37.4-1.6,38.3-38.4
	C448.2,62.3,448.9,63,485.6,63.9z"/>
<path class="st1" d="M198,231.3c-36.7,0.9-37.4,1.6-38.3,38.4c-0.9-36.8-1.6-37.5-38.3-38.4c36.7-0.9,37.4-1.6,38.3-38.4
	C160.6,229.7,161.2,230.4,198,231.3z"/>
<g>
	<g>
		<defs>
			<rect id="SVGID_1_" x="129.3" y="50.7" width="361.3" height="199.8"/>
		</defs>
		<clipPath id="SVGID_2_">
			<use xlink:href="#SVGID_1_"  style="overflow:visible;"/>
		</clipPath>
		<g class="st2">
			<path class="st3" d="M374.8,52.1c61.3,0,104.6,19.7,112.9,51.5c6.1,23-6.6,49.6-35.5,74.7c-29.1,25.4-71.5,46.3-119,59
				c-29.6,7.8-59.7,11.9-87.3,11.9c-61.3,0-104.6-19.7-112.9-51.5c-6.1-23,6.6-49.6,35.5-74.9c29.1-25.4,71.5-46.3,119-59
				C317.1,56.5,347.2,52.1,374.8,52.1 M374.8,51.3c-27,0-56.8,3.8-87.4,11.9c-98.5,26.1-168,86.6-155.1,134.9
				c8.8,33.4,54.2,52.2,113.9,52.2c27,0,56.8-3.8,87.4-11.9c98.5-26.1,168-86.6,155.1-134.9C479.9,70.1,434.5,51.3,374.8,51.3z"/>
		</g>
	</g>
</g>
<path class="st4" d="M10.9,171.3v-56.4h21.8c4.2,0,7.8,0.7,11.1,2.1c3.1,1.4,5.7,3.5,7.6,6.2s2.8,6.1,2.8,9.9c0,3.8-0.9,7.1-2.6,9.9
	c-1.7,2.8-4.2,4.8-7.4,6.2c-3.3,1.4-7.1,2.1-11.6,2.1h-9.7v20.1L10.9,171.3L10.9,171.3z M22.9,141.2h9.5c3.1,0,5.5-0.7,7.3-1.9
	c1.7-1.2,2.6-3.3,2.6-6.1s-0.9-4.8-2.6-6.2c-1.7-1.4-4.2-2.1-7.1-2.1h-9.5L22.9,141.2z"/>
<path class="st4" d="M62.2,171.3v-40.6H74v5c1.4-2.2,2.9-3.8,5-4.8s4.3-1.4,6.8-1.4c0.9,0,1.7,0,2.4,0.2c0.7,0.2,1.4,0.2,2.1,0.3
	l-1.4,12c-0.9-0.3-1.7-0.5-2.8-0.7c-1-0.2-1.9-0.3-2.9-0.3c-2.8,0-5,0.9-6.8,2.4c-1.7,1.6-2.6,3.8-2.6,6.7v21.1H62.2V171.3z"/>
<path class="st4" d="M116.2,172.5c-4.3,0-8.3-1-11.6-2.9c-3.5-1.9-6.1-4.5-8-7.8s-2.9-6.9-2.9-10.7c0-2.9,0.5-5.5,1.7-8.1
	c1-2.6,2.6-4.8,4.7-6.9c2.1-2.1,4.3-3.6,7.1-4.7c2.8-1.2,5.7-1.7,9-1.7c4.3,0,8.3,1,11.6,2.9c3.3,1.9,6.1,4.5,8,7.8
	s2.9,6.9,2.9,10.7c0,2.8-0.5,5.5-1.7,8.1c-1,2.6-2.6,4.8-4.7,6.9c-2.1,2.1-4.3,3.6-7.1,4.7C122.5,171.8,119.5,172.5,116.2,172.5z
	 M116.1,162.3c2.1,0,4-0.5,5.5-1.4c1.6-0.9,2.9-2.2,3.8-4c0.9-1.7,1.4-3.6,1.4-6.1c0-2.4-0.5-4.3-1.4-6.1c-0.9-1.7-2.2-2.9-3.8-4
	c-1.6-0.9-3.5-1.4-5.5-1.4s-4,0.5-5.5,1.4c-1.6,0.9-2.9,2.2-3.8,4c-0.9,1.7-1.4,3.8-1.4,6.1c0,2.4,0.5,4.3,1.4,6.1
	c0.9,1.7,2.3,2.9,3.8,4C112.2,161.8,114,162.3,116.1,162.3z"/>
<path class="st4" d="M144.6,189.4c-2.1,0-3.8-0.2-5.2-0.5s-2.8-0.9-4.2-1.6l2.4-8.8c0.7,0.3,1.4,0.7,2.1,0.9
	c0.7,0.2,1.4,0.3,2.4,0.3c1.6,0,2.8-0.5,3.5-1.4s1-2.2,1-4v-43.8h11.8v44.4c0,2.9-0.5,5.4-1.7,7.4c-1.2,2.1-2.8,3.8-4.8,5
	C149.8,188.7,147.4,189.4,144.6,189.4z M152.6,124.1c-1.9,0-3.6-0.7-5-1.9c-1.4-1.2-2.1-2.8-2.1-4.8c0-2.1,0.7-3.6,2.1-5
	c1.4-1.2,3.1-1.9,5-1.9s3.6,0.7,5,1.9c1.4,1.2,2.1,2.9,2.1,5s-0.7,3.6-2.1,4.8C156.2,123.5,154.7,124.1,152.6,124.1z"/>
<path class="st4" d="M189,172.5c-4.5,0-8.3-0.9-11.8-2.8c-3.3-1.7-6.1-4.3-7.8-7.6c-1.9-3.3-2.8-6.9-2.8-11.2c0-3.1,0.5-6.1,1.6-8.6
	c1-2.6,2.6-4.8,4.7-6.7c1.9-1.9,4.3-3.5,6.9-4.5c2.6-1,5.5-1.6,8.8-1.6c3.5,0,6.6,0.7,9.3,1.9c2.8,1.2,5,2.9,6.8,5.2
	c1.7,2.2,3.1,4.8,3.8,7.8c0.7,2.9,0.7,6.2,0.2,9.7h-31.2c0,1.9,0.5,3.5,1.6,4.8c1,1.4,2.4,2.4,4.2,3.3c1.7,0.9,3.8,1.2,6.2,1.2
	s4.7-0.3,6.8-1s4.2-1.6,6.1-2.9l4,8.1c-1.2,1-2.9,1.9-4.8,2.6c-1.9,0.7-4,1.4-6.2,1.7C193.1,172.3,191,172.5,189,172.5z
	 M178.2,145.8h19.2c0-2.4-0.9-4.3-2.6-5.7c-1.6-1.4-3.8-2.1-6.6-2.1s-5.2,0.7-6.9,2.1C179.6,141.5,178.6,143.4,178.2,145.8z"/>
<path class="st4" d="M236.4,172.5c-4.3,0-8.1-0.9-11.6-2.8c-3.5-1.9-6.1-4.5-8-7.6c-1.9-3.3-2.9-6.9-2.9-11.1c0-3.1,0.5-5.9,1.7-8.6
	c1.2-2.6,2.8-4.8,4.8-6.9c2.1-1.9,4.5-3.5,7.3-4.5s5.9-1.6,9-1.6c2.9,0,5.7,0.3,8.3,1.2s4.8,2.1,6.9,3.6l-5.4,8.8
	c-1.2-1.2-2.8-2.1-4.3-2.6c-1.6-0.5-3.3-0.9-5-0.9c-2.4,0-4.5,0.5-6.2,1.4s-3.1,2.2-4.2,3.8c-1,1.7-1.4,3.8-1.4,6.1
	c0,3.6,1,6.4,3.1,8.3c2.1,2.1,5,2.9,8.7,2.9c1.9,0,3.8-0.3,5.5-1s3.3-1.7,4.7-2.9l5,8.8c-2.3,1.7-4.8,2.9-7.6,4
	C242.3,172,239.3,172.5,236.4,172.5z"/>
<path class="st4" d="M255.3,140v-9.5h9.5v9.5H255.3z M277.6,172.5c-4.3,0-7.8-1.2-10.4-3.6c-2.6-2.4-3.8-6.2-3.8-11.1v-38.9h11.8
	v11.8h10v9.5h-10v15.6c0,2.4,0.5,4.2,1.6,5c1,1,2.2,1.4,4,1.4c0.9,0,1.7-0.2,2.6-0.3c0.9-0.2,1.6-0.5,2.3-0.9l1.7,9.3
	c-1.2,0.7-2.6,1.2-4.3,1.7C281.2,172.5,279.5,172.5,277.6,172.5z"/>
<path class="st4" d="M335.1,172.5c-4.2,0-8.1-0.5-12.1-1.7s-7.3-2.9-10-5.4l5.7-9c1.2,1.2,2.8,2.2,4.5,3.1c1.7,0.9,3.8,1.6,5.9,2.1
	s4.2,0.7,6.1,0.7c3.1,0,5.5-0.5,7.4-1.6c1.9-1,2.9-2.6,2.9-4.7c0-1.7-0.7-3.1-2.1-4.2s-3.8-2.2-7.4-3.3l-5.2-1.4
	c-5.7-1.6-9.7-3.8-12.3-6.4c-2.4-2.8-3.8-6.1-3.8-9.9c0-2.4,0.5-4.8,1.6-6.9c1-2.1,2.6-4,4.5-5.5c1.9-1.6,4.2-2.8,6.8-3.6
	c2.6-0.9,5.4-1.2,8.5-1.2c4.2,0,8,0.5,11.4,1.7c3.5,1.2,6.4,2.8,8.7,4.8l-5.9,8.6c-1-1-2.4-1.9-3.8-2.8c-1.6-0.9-3.1-1.4-5-1.9
	c-1.7-0.5-3.6-0.7-5.4-0.7c-1.9,0-3.6,0.3-5,0.9c-1.4,0.5-2.6,1.2-3.5,2.2s-1.2,2.1-1.2,3.5c0,1,0.3,1.9,0.9,2.6
	c0.5,0.7,1.6,1.4,2.9,2.1c1.4,0.7,3.3,1.4,5.7,2.1l5.4,1.6c5.5,1.6,9.7,3.8,12.1,6.2c2.6,2.6,3.8,5.9,3.8,9.9c0,3.5-0.9,6.6-2.6,9.2
	c-1.7,2.6-4.3,4.7-7.6,6.2C343.6,171.6,339.6,172.5,335.1,172.5z"/>
<path class="st4" d="M365.9,188.2v-57.6h10.2v5c1.6-1.9,3.5-3.3,5.9-4.5s5.2-1.7,8.7-1.7c4,0,7.4,0.9,10.6,2.8
	c3.1,1.7,5.5,4.3,7.3,7.6c1.7,3.3,2.6,6.9,2.6,11.2c0,3.1-0.5,5.9-1.6,8.5c-1,2.6-2.4,4.8-4.3,6.9c-1.9,1.9-4,3.5-6.6,4.7
	c-2.4,1-5.2,1.7-8.3,1.7c-2.6,0-5-0.5-7.3-1.4c-2.1-0.9-4-2.1-5.5-3.6v20.8H366v-0.4H365.9z M388.4,162.3c2.1,0,4-0.5,5.5-1.4
	c1.6-0.9,2.9-2.2,3.8-4c0.9-1.7,1.4-3.6,1.4-6.1c0-2.4-0.5-4.3-1.4-6.1c-0.9-1.7-2.2-2.9-3.8-4c-1.6-0.9-3.5-1.4-5.5-1.4
	s-4,0.5-5.5,1.4c-1.6,0.9-2.9,2.2-3.8,4c-0.9,1.7-1.4,3.6-1.4,6.1c0,2.4,0.5,4.3,1.4,6.1c0.9,1.7,2.3,2.9,3.8,4
	C384.4,161.8,386.4,162.3,388.4,162.3z"/>
<path class="st4" d="M419.1,171.3v-58.1h11.8v26.1l-2.4-2.9c1.7-2.2,4-4,6.4-5.4c2.4-1.2,5.2-1.9,8-1.9c3.8,0,6.9,0.7,9.5,2.2
	c2.6,1.6,4.3,3.5,5.7,5.9c1.2,2.4,1.9,5,1.9,7.8v25.9h-12v-22.3c0-2.6-0.7-4.5-2.2-6.2c-1.6-1.6-3.6-2.4-6.2-2.4
	c-1.7,0-3.3,0.3-4.7,1c-1.4,0.7-2.2,1.7-2.9,3.1s-1,2.9-1,4.8v22h-11.8L419.1,171.3L419.1,171.3z"/>
<path class="st4" d="M489.9,172.5c-4.5,0-8.3-0.9-11.8-2.8c-3.3-1.7-6.1-4.3-7.8-7.6c-1.9-3.3-2.8-6.9-2.8-11.2
	c0-3.1,0.5-6.1,1.6-8.6c1-2.6,2.6-4.8,4.7-6.7s4.3-3.5,6.9-4.5s5.5-1.6,8.8-1.6c3.5,0,6.6,0.7,9.3,1.9c2.8,1.2,5,2.9,6.8,5.2
	c1.7,2.2,3.1,4.8,3.8,7.8c0.7,2.9,0.7,6.2,0.2,9.7h-31.2c0,1.9,0.5,3.5,1.6,4.8c1,1.4,2.4,2.4,4.2,3.3c1.7,0.9,3.8,1.2,6.2,1.2
	c2.4,0,4.7-0.3,6.8-1s4.2-1.6,6.1-2.9l4,8.1c-1.2,1-2.9,1.9-4.8,2.6c-1.9,0.7-4,1.4-6.2,1.7C493.9,172.3,491.8,172.5,489.9,172.5z
	 M479.2,145.8h19.2c0-2.4-0.9-4.3-2.6-5.7s-3.8-2.1-6.6-2.1s-5.2,0.7-6.9,2.1C480.4,141.5,479.3,143.4,479.2,145.8z"/>
<path class="st4" d="M518.1,171.3v-40.6h11.8v5c1.4-2.2,2.9-3.8,5-4.8s4.3-1.4,6.8-1.4c0.9,0,1.7,0,2.4,0.2s1.4,0.2,2.1,0.3
	l-1.4,12.1c-0.9-0.3-1.7-0.5-2.8-0.7c-1-0.2-1.9-0.3-2.9-0.3c-2.8,0-5,0.9-6.8,2.4c-1.7,1.6-2.6,3.8-2.6,6.7v21.1L518.1,171.3
	L518.1,171.3z"/>
<path class="st4" d="M572.2,172.5c-4.5,0-8.3-0.9-11.8-2.8c-3.3-1.7-6.1-4.3-7.8-7.6c-1.9-3.3-2.8-6.9-2.8-11.2
	c0-3.1,0.5-6.1,1.6-8.6c1-2.6,2.6-4.8,4.7-6.7c2.1-1.9,4.3-3.5,6.9-4.5c2.6-1,5.5-1.6,8.8-1.6c3.5,0,6.6,0.7,9.4,1.9
	c2.8,1.2,5,2.9,6.8,5.2c1.7,2.2,3.1,4.8,3.8,7.8c0.7,2.9,0.7,6.2,0.2,9.7h-31.2c0,1.9,0.5,3.5,1.6,4.8c1,1.4,2.4,2.4,4.2,3.3
	c1.7,0.9,3.8,1.2,6.2,1.2s4.7-0.3,6.8-1s4.2-1.6,6.1-2.9l4,8.1c-1.2,1-2.9,1.9-4.8,2.6c-1.9,0.7-4,1.4-6.2,1.7
	C576.1,172.3,574.1,172.5,572.2,172.5z M561.4,145.8h19.2c0-2.4-0.9-4.3-2.6-5.7c-1.7-1.4-3.8-2.1-6.6-2.1s-5.2,0.7-6.9,2.1
	C562.6,141.5,561.6,143.4,561.4,145.8z"/>
</svg>
