<svg xmlns="http://www.w3.org/2000/svg" xmlns:xlink="http://www.w3.org/1999/xlink" width="600" zoomAndPan="magnify" viewBox="0 0 450 225" height="300" preserveAspectRatio="xMidYMid meet" version="1.0"><defs><clipPath id="ce3f152dc9"><path d="M 97 38 L 368 38 L 368 187.84375 L 97 187.84375 Z M 97 38 " clip-rule="nonzero"/></clipPath></defs><rect x="-45" width="540" fill="#ffffff" y="-22.5" height="270" fill-opacity="1"/><rect x="-45" width="540" fill="#ffffff" y="-22.5" height="270" fill-opacity="1"/><path stroke-linecap="butt" transform="matrix(1.298676, 0, 0, 1.296794, -189.966086, -13.160687)" fill-opacity="1" fill="#aee3f3" fill-rule="nonzero" stroke-linejoin="miter" d="M 426.700425 47.099726 C 405.500957 47.599757 405.10091 48.000384 404.598595 69.299902 C 404.099289 48.000384 403.699242 47.599757 382.499773 47.099726 C 403.699242 46.599694 404.099289 46.199067 404.598595 24.899549 C 405.10091 46.199067 405.500957 46.599694 426.700425 47.099726 Z M 426.700425 47.099726 " stroke="#aee3f3" stroke-width="1" stroke-opacity="1" stroke-miterlimit="10"/><path stroke-linecap="butt" transform="matrix(1.298676, 0, 0, 1.296794, -189.966086, -13.160687)" fill-opacity="1" fill="#aee3f3" fill-rule="nonzero" stroke-linejoin="miter" d="M 260.599819 143.90093 C 239.40035 144.400961 239.000304 144.798576 238.500997 166.101107 C 237.998683 144.798576 237.598636 144.400961 216.399167 143.90093 C 237.598636 143.400899 237.998683 143.000272 238.500997 121.700753 C 239.000304 143.000272 239.40035 143.400899 260.599819 143.90093 Z M 260.599819 143.90093 " stroke="#aee3f3" stroke-width="1" stroke-opacity="1" stroke-miterlimit="10"/><g clip-path="url(#ce3f152dc9)"><path fill="#aee3f3" d="M 281.0625 39.101562 C 327.035156 39.101562 359.503906 53.882812 365.738281 77.746094 C 370.28125 94.992188 360.800781 114.960938 339.113281 133.765625 C 317.296875 152.828125 285.480469 168.519531 249.894531 177.988281 C 227.6875 183.824219 205.089844 186.933594 184.441406 186.933594 C 138.46875 186.933594 106.003906 172.152344 99.769531 148.289062 C 95.222656 131.042969 104.703125 111.070312 126.390625 92.140625 C 148.210938 73.074219 180.027344 57.386719 215.609375 47.917969 C 237.816406 42.34375 260.414062 39.101562 281.0625 39.101562 M 281.0625 38.453125 C 260.804688 38.453125 238.46875 41.304688 215.480469 47.398438 C 141.585938 66.980469 89.507812 112.367188 99.121094 148.550781 C 105.742188 173.578125 139.769531 187.710938 184.570312 187.710938 C 204.832031 187.710938 227.167969 184.859375 250.15625 178.765625 C 324.050781 159.183594 376.128906 113.796875 366.515625 77.613281 C 359.894531 52.585938 325.867188 38.453125 281.0625 38.453125 Z M 281.0625 38.453125 " fill-opacity="1" fill-rule="nonzero"/></g><path fill="#000000" d="M 8.210938 128.449219 L 8.210938 86.171875 L 24.574219 86.171875 C 27.691406 86.171875 30.417969 86.691406 32.886719 87.730469 C 35.222656 88.765625 37.171875 90.324219 38.601562 92.398438 C 40.03125 94.472656 40.679688 96.9375 40.679688 99.789062 C 40.679688 102.644531 40.03125 105.105469 38.730469 107.183594 C 37.433594 109.257812 35.613281 110.8125 33.148438 111.851562 C 30.679688 112.886719 27.820312 113.40625 24.445312 113.40625 L 17.171875 113.40625 L 17.171875 128.449219 Z M 17.171875 105.886719 L 24.316406 105.886719 C 26.652344 105.886719 28.472656 105.367188 29.769531 104.457031 C 31.070312 103.550781 31.71875 101.996094 31.71875 99.917969 C 31.71875 97.84375 31.070312 96.289062 29.769531 95.25 C 28.472656 94.214844 26.652344 93.695312 24.445312 93.695312 L 17.300781 93.695312 Z M 17.171875 105.886719 " fill-opacity="1" fill-rule="nonzero"/><path fill="#000000" d="M 46.652344 128.449219 L 46.652344 97.972656 L 55.484375 97.972656 L 55.484375 101.734375 C 56.523438 100.050781 57.691406 98.882812 59.25 98.105469 C 60.808594 97.328125 62.496094 97.066406 64.316406 97.066406 C 64.964844 97.066406 65.613281 97.066406 66.132812 97.195312 C 66.652344 97.328125 67.171875 97.328125 67.691406 97.457031 L 66.652344 106.535156 C 66.003906 106.273438 65.355469 106.144531 64.574219 106.015625 C 63.796875 105.886719 63.144531 105.753906 62.367188 105.753906 C 60.289062 105.753906 58.601562 106.402344 57.300781 107.570312 C 56.003906 108.738281 55.355469 110.421875 55.355469 112.628906 L 55.355469 128.449219 C 55.355469 128.449219 46.652344 128.449219 46.652344 128.449219 Z M 46.652344 128.449219 " fill-opacity="1" fill-rule="nonzero"/><path fill="#000000" d="M 87.171875 129.355469 C 83.925781 129.355469 80.9375 128.578125 78.46875 127.152344 C 75.871094 125.726562 73.925781 123.78125 72.496094 121.316406 C 71.066406 118.851562 70.289062 116.128906 70.289062 113.277344 C 70.289062 111.070312 70.679688 109.128906 71.585938 107.183594 C 72.367188 105.238281 73.535156 103.550781 75.09375 101.996094 C 76.652344 100.4375 78.339844 99.269531 80.417969 98.492188 C 82.496094 97.585938 84.703125 97.195312 87.171875 97.195312 C 90.417969 97.195312 93.40625 97.972656 95.871094 99.402344 C 98.339844 100.828125 100.417969 102.773438 101.847656 105.238281 C 103.273438 107.699219 104.054688 110.421875 104.054688 113.277344 C 104.054688 115.351562 103.664062 117.425781 102.753906 119.371094 C 101.976562 121.316406 100.808594 123.003906 99.25 124.558594 C 97.691406 126.113281 96.003906 127.28125 93.925781 128.058594 C 91.847656 128.839844 89.640625 129.355469 87.171875 129.355469 Z M 87.042969 121.707031 C 88.601562 121.707031 90.027344 121.316406 91.199219 120.667969 C 92.367188 120.019531 93.40625 118.984375 94.054688 117.6875 C 94.703125 116.390625 95.09375 114.960938 95.09375 113.148438 C 95.09375 111.332031 94.703125 109.90625 94.054688 108.609375 C 93.40625 107.3125 92.367188 106.402344 91.199219 105.625 C 90.027344 104.976562 88.601562 104.589844 87.042969 104.589844 C 85.484375 104.589844 84.054688 104.976562 82.886719 105.625 C 81.71875 106.273438 80.679688 107.3125 80.027344 108.609375 C 79.378906 109.90625 78.988281 111.460938 78.988281 113.148438 C 78.988281 114.960938 79.378906 116.390625 80.027344 117.6875 C 80.679688 118.984375 81.71875 119.890625 82.886719 120.667969 C 84.183594 121.316406 85.484375 121.707031 87.042969 121.707031 Z M 87.042969 121.707031 " fill-opacity="1" fill-rule="nonzero"/><path fill="#000000" d="M 108.46875 142.066406 C 106.910156 142.066406 105.613281 141.9375 104.574219 141.675781 C 103.535156 141.417969 102.496094 141.027344 101.457031 140.507812 L 103.273438 133.894531 C 103.792969 134.15625 104.3125 134.414062 104.832031 134.542969 C 105.351562 134.675781 105.871094 134.804688 106.652344 134.804688 C 107.820312 134.804688 108.730469 134.414062 109.25 133.765625 C 109.769531 133.117188 110.027344 132.082031 110.027344 130.785156 L 110.027344 97.972656 L 118.859375 97.972656 L 118.859375 131.300781 C 118.859375 133.507812 118.46875 135.320312 117.558594 136.878906 C 116.652344 138.433594 115.484375 139.730469 113.925781 140.640625 C 112.367188 141.546875 110.546875 142.066406 108.46875 142.066406 Z M 114.445312 93.046875 C 113.015625 93.046875 111.714844 92.527344 110.675781 91.621094 C 109.636719 90.710938 109.117188 89.546875 109.117188 87.988281 C 109.117188 86.433594 109.636719 85.265625 110.675781 84.230469 C 111.714844 83.320312 113.015625 82.800781 114.445312 82.800781 C 115.871094 82.800781 117.171875 83.320312 118.210938 84.230469 C 119.25 85.136719 119.769531 86.433594 119.769531 87.988281 C 119.769531 89.546875 119.25 90.710938 118.210938 91.621094 C 117.171875 92.65625 116.003906 93.046875 114.445312 93.046875 Z M 114.445312 93.046875 " fill-opacity="1" fill-rule="nonzero"/><path fill="#000000" d="M 141.714844 129.355469 C 138.339844 129.355469 135.480469 128.707031 132.886719 127.28125 C 130.417969 125.984375 128.339844 124.039062 127.039062 121.578125 C 125.613281 119.113281 124.964844 116.390625 124.964844 113.148438 C 124.964844 110.8125 125.351562 108.609375 126.132812 106.664062 C 126.910156 104.71875 128.078125 103.03125 129.636719 101.605469 C 131.066406 100.179688 132.886719 99.011719 134.832031 98.234375 C 136.78125 97.457031 138.988281 97.066406 141.457031 97.066406 C 144.054688 97.066406 146.390625 97.585938 148.46875 98.492188 C 150.546875 99.402344 152.234375 100.699219 153.535156 102.382812 C 154.832031 104.070312 155.871094 106.015625 156.390625 108.21875 C 156.910156 110.421875 156.910156 112.886719 156.519531 115.480469 L 133.144531 115.480469 C 133.144531 116.90625 133.535156 118.074219 134.3125 119.113281 C 135.09375 120.148438 136.132812 120.929688 137.429688 121.578125 C 138.730469 122.226562 140.289062 122.484375 142.105469 122.484375 C 143.921875 122.484375 145.613281 122.226562 147.171875 121.707031 C 148.730469 121.1875 150.285156 120.539062 151.714844 119.5 L 154.703125 125.597656 C 153.792969 126.375 152.496094 127.023438 151.066406 127.542969 C 149.636719 128.058594 148.078125 128.578125 146.390625 128.839844 C 144.832031 129.226562 143.273438 129.355469 141.714844 129.355469 Z M 133.664062 109.386719 L 148.078125 109.386719 C 148.078125 107.570312 147.429688 106.144531 146.132812 105.105469 C 144.960938 104.070312 143.273438 103.550781 141.195312 103.550781 C 139.117188 103.550781 137.300781 104.070312 136 105.105469 C 134.703125 106.144531 133.921875 107.570312 133.664062 109.386719 Z M 133.664062 109.386719 " fill-opacity="1" fill-rule="nonzero"/><path fill="#000000" d="M 177.300781 129.355469 C 174.054688 129.355469 171.195312 128.707031 168.597656 127.28125 C 166 125.855469 164.054688 123.910156 162.625 121.578125 C 161.195312 119.113281 160.417969 116.390625 160.417969 113.277344 C 160.417969 110.941406 160.804688 108.867188 161.714844 106.792969 C 162.625 104.847656 163.792969 103.160156 165.351562 101.605469 C 166.910156 100.179688 168.726562 99.011719 170.804688 98.234375 C 172.882812 97.457031 175.222656 97.066406 177.558594 97.066406 C 179.765625 97.066406 181.84375 97.328125 183.792969 97.972656 C 185.742188 98.621094 187.429688 99.53125 188.988281 100.699219 L 184.960938 107.3125 C 184.050781 106.402344 182.882812 105.753906 181.714844 105.367188 C 180.546875 104.976562 179.246094 104.71875 177.949219 104.71875 C 176.128906 104.71875 174.574219 105.105469 173.273438 105.753906 C 171.976562 106.402344 170.9375 107.441406 170.15625 108.609375 C 169.378906 109.90625 169.117188 111.460938 169.117188 113.148438 C 169.117188 115.871094 169.898438 117.945312 171.457031 119.371094 C 173.015625 120.929688 175.222656 121.578125 177.949219 121.578125 C 179.378906 121.578125 180.804688 121.316406 182.105469 120.796875 C 183.402344 120.28125 184.570312 119.5 185.609375 118.59375 L 189.378906 125.207031 C 187.6875 126.503906 185.742188 127.410156 183.664062 128.191406 C 181.714844 128.96875 179.507812 129.355469 177.300781 129.355469 Z M 177.300781 129.355469 " fill-opacity="1" fill-rule="nonzero"/><path fill="#000000" d="M 191.457031 104.976562 L 191.457031 97.84375 L 198.597656 97.84375 L 198.597656 104.976562 Z M 208.207031 129.355469 C 204.960938 129.355469 202.363281 128.449219 200.417969 126.632812 C 198.46875 124.816406 197.558594 121.964844 197.558594 118.335938 L 197.558594 89.15625 L 206.390625 89.15625 L 206.390625 97.972656 L 213.921875 97.972656 L 213.921875 105.105469 L 206.390625 105.105469 L 206.390625 116.777344 C 206.390625 118.59375 206.78125 119.890625 207.558594 120.539062 C 208.339844 121.316406 209.246094 121.578125 210.546875 121.578125 C 211.195312 121.578125 211.84375 121.445312 212.492188 121.316406 C 213.144531 121.1875 213.664062 120.929688 214.183594 120.667969 L 215.480469 127.671875 C 214.570312 128.191406 213.53125 128.578125 212.234375 128.96875 C 210.933594 129.355469 209.636719 129.355469 208.207031 129.355469 Z M 208.207031 129.355469 " fill-opacity="1" fill-rule="nonzero"/><path fill="#000000" d="M 251.324219 129.355469 C 248.207031 129.355469 245.21875 128.96875 242.234375 128.058594 C 239.246094 127.152344 236.777344 125.855469 234.699219 124.039062 L 238.988281 117.296875 C 239.894531 118.203125 241.066406 118.984375 242.363281 119.632812 C 243.660156 120.28125 245.21875 120.796875 246.777344 121.1875 C 248.335938 121.578125 249.894531 121.707031 251.324219 121.707031 C 253.660156 121.707031 255.480469 121.316406 256.910156 120.539062 C 258.335938 119.761719 259.117188 118.59375 259.117188 117.039062 C 259.117188 115.742188 258.597656 114.703125 257.558594 113.925781 C 256.519531 113.148438 254.699219 112.238281 251.972656 111.460938 L 248.078125 110.421875 C 243.792969 109.257812 240.804688 107.570312 238.855469 105.625 C 237.039062 103.550781 236 101.085938 236 98.234375 C 236 96.417969 236.390625 94.601562 237.167969 93.046875 C 237.949219 91.492188 239.117188 90.0625 240.546875 88.898438 C 241.972656 87.730469 243.660156 86.820312 245.609375 86.171875 C 247.558594 85.523438 249.636719 85.265625 251.972656 85.265625 C 255.089844 85.265625 257.949219 85.65625 260.542969 86.5625 C 263.140625 87.46875 265.351562 88.636719 267.039062 90.195312 L 262.621094 96.679688 C 261.84375 95.898438 260.804688 95.25 259.765625 94.601562 C 258.597656 93.953125 257.429688 93.566406 256 93.175781 C 254.699219 92.789062 253.273438 92.65625 251.972656 92.65625 C 250.542969 92.65625 249.246094 92.917969 248.207031 93.304688 C 247.167969 93.695312 246.257812 94.214844 245.609375 94.992188 C 244.960938 95.769531 244.699219 96.546875 244.699219 97.585938 C 244.699219 98.363281 244.960938 99.011719 245.351562 99.53125 C 245.738281 100.050781 246.519531 100.566406 247.558594 101.085938 C 248.597656 101.605469 250.027344 102.125 251.84375 102.644531 L 255.871094 103.808594 C 260.023438 104.976562 263.140625 106.664062 264.960938 108.480469 C 266.910156 110.425781 267.816406 112.886719 267.816406 115.871094 C 267.816406 118.464844 267.167969 120.796875 265.871094 122.742188 C 264.570312 124.6875 262.621094 126.246094 260.15625 127.410156 C 257.6875 128.707031 254.699219 129.355469 251.324219 129.355469 Z M 251.324219 129.355469 " fill-opacity="1" fill-rule="nonzero"/><path fill="#000000" d="M 274.441406 141.15625 L 274.441406 97.972656 L 282.101562 97.972656 L 282.101562 101.734375 C 283.273438 100.308594 284.699219 99.269531 286.519531 98.363281 C 288.335938 97.457031 290.414062 97.066406 293.011719 97.066406 C 296 97.066406 298.597656 97.714844 300.933594 99.140625 C 303.269531 100.4375 305.089844 102.382812 306.386719 104.847656 C 307.6875 107.3125 308.335938 110.035156 308.335938 113.277344 C 308.335938 115.609375 307.945312 117.6875 307.167969 119.632812 C 306.386719 121.578125 305.347656 123.261719 303.921875 124.816406 C 302.492188 126.246094 300.933594 127.410156 298.984375 128.320312 C 297.167969 129.097656 295.089844 129.617188 292.753906 129.617188 C 290.804688 129.617188 288.984375 129.226562 287.296875 128.578125 C 285.738281 127.929688 284.3125 127.023438 283.140625 125.855469 L 283.140625 141.417969 L 274.441406 141.417969 Z M 291.324219 121.707031 C 292.882812 121.707031 294.308594 121.316406 295.480469 120.667969 C 296.648438 120.019531 297.6875 118.984375 298.335938 117.6875 C 298.984375 116.390625 299.375 114.960938 299.375 113.148438 C 299.375 111.332031 298.984375 109.90625 298.335938 108.609375 C 297.6875 107.3125 296.648438 106.402344 295.480469 105.625 C 294.308594 104.976562 292.882812 104.589844 291.324219 104.589844 C 289.765625 104.589844 288.335938 104.976562 287.167969 105.625 C 286 106.273438 284.960938 107.3125 284.308594 108.609375 C 283.660156 109.90625 283.273438 111.332031 283.273438 113.148438 C 283.273438 114.960938 283.660156 116.390625 284.308594 117.6875 C 284.960938 118.984375 286 119.890625 287.167969 120.667969 C 288.335938 121.316406 289.765625 121.707031 291.324219 121.707031 Z M 291.324219 121.707031 " fill-opacity="1" fill-rule="nonzero"/><path fill="#000000" d="M 314.308594 128.449219 L 314.308594 84.878906 L 323.140625 84.878906 L 323.140625 104.457031 L 321.324219 102.253906 C 322.621094 100.566406 324.308594 99.269531 326.128906 98.234375 C 327.945312 97.328125 330.023438 96.808594 332.101562 96.808594 C 334.957031 96.808594 337.296875 97.328125 339.246094 98.492188 C 341.191406 99.660156 342.492188 101.085938 343.53125 102.902344 C 344.4375 104.71875 344.957031 106.664062 344.957031 108.738281 L 344.957031 128.191406 L 335.996094 128.191406 L 335.996094 111.460938 C 335.996094 109.515625 335.476562 108.089844 334.308594 106.792969 C 333.140625 105.625 331.582031 104.976562 329.632812 104.976562 C 328.335938 104.976562 327.167969 105.238281 326.128906 105.753906 C 325.089844 106.273438 324.441406 107.050781 323.921875 108.089844 C 323.402344 109.128906 323.140625 110.292969 323.140625 111.71875 L 323.140625 128.191406 L 314.308594 128.191406 Z M 314.308594 128.449219 " fill-opacity="1" fill-rule="nonzero"/><path fill="#000000" d="M 367.425781 129.355469 C 364.050781 129.355469 361.191406 128.707031 358.59375 127.28125 C 356.128906 125.984375 354.050781 124.039062 352.75 121.578125 C 351.320312 119.113281 350.671875 116.390625 350.671875 113.148438 C 350.671875 110.8125 351.0625 108.609375 351.839844 106.664062 C 352.621094 104.71875 353.789062 103.03125 355.347656 101.605469 C 356.90625 100.179688 358.59375 99.011719 360.542969 98.234375 C 362.492188 97.457031 364.699219 97.066406 367.167969 97.066406 C 369.761719 97.066406 372.101562 97.585938 374.179688 98.492188 C 376.257812 99.402344 377.945312 100.699219 379.242188 102.382812 C 380.542969 104.070312 381.582031 106.015625 382.101562 108.21875 C 382.621094 110.421875 382.621094 112.886719 382.230469 115.480469 L 358.855469 115.480469 C 358.855469 116.90625 359.246094 118.074219 360.023438 119.113281 C 360.800781 120.148438 361.839844 120.929688 363.140625 121.578125 C 364.4375 122.226562 365.996094 122.484375 367.816406 122.484375 C 369.632812 122.484375 371.320312 122.226562 372.878906 121.707031 C 374.4375 121.1875 375.996094 120.539062 377.425781 119.5 L 380.414062 125.597656 C 379.503906 126.375 378.203125 127.023438 376.777344 127.542969 C 375.347656 128.058594 373.789062 128.578125 372.101562 128.839844 C 370.414062 129.226562 368.855469 129.355469 367.425781 129.355469 Z M 359.375 109.386719 L 373.789062 109.386719 C 373.789062 107.570312 373.140625 106.144531 371.839844 105.105469 C 370.542969 104.070312 368.984375 103.550781 366.90625 103.550781 C 364.828125 103.550781 363.011719 104.070312 361.710938 105.105469 C 360.28125 106.144531 359.503906 107.570312 359.375 109.386719 Z M 359.375 109.386719 " fill-opacity="1" fill-rule="nonzero"/><path fill="#000000" d="M 388.59375 128.449219 L 388.59375 97.972656 L 397.425781 97.972656 L 397.425781 101.734375 C 398.464844 100.050781 399.632812 98.882812 401.191406 98.105469 C 402.75 97.328125 404.4375 97.066406 406.257812 97.066406 C 406.90625 97.066406 407.554688 97.066406 408.074219 97.195312 C 408.59375 97.328125 409.113281 97.328125 409.632812 97.457031 L 408.59375 106.535156 C 407.945312 106.273438 407.296875 106.144531 406.515625 106.015625 C 405.738281 105.886719 405.085938 105.753906 404.308594 105.753906 C 402.230469 105.753906 400.542969 106.402344 399.242188 107.570312 C 397.945312 108.738281 397.296875 110.421875 397.296875 112.628906 L 397.296875 128.449219 C 397.296875 128.449219 388.59375 128.449219 388.59375 128.449219 Z M 388.59375 128.449219 " fill-opacity="1" fill-rule="nonzero"/><path fill="#000000" d="M 429.113281 129.355469 C 425.738281 129.355469 422.878906 128.707031 420.28125 127.28125 C 417.816406 125.984375 415.738281 124.039062 414.4375 121.578125 C 413.007812 119.113281 412.359375 116.390625 412.359375 113.148438 C 412.359375 110.8125 412.75 108.609375 413.527344 106.664062 C 414.308594 104.71875 415.476562 103.03125 417.035156 101.605469 C 418.59375 100.179688 420.28125 99.011719 422.230469 98.234375 C 424.179688 97.457031 426.386719 97.066406 428.851562 97.066406 C 431.449219 97.066406 433.789062 97.585938 435.867188 98.492188 C 437.945312 99.402344 439.632812 100.699219 440.929688 102.382812 C 442.230469 104.070312 443.269531 106.015625 443.789062 108.21875 C 444.308594 110.421875 444.308594 112.886719 443.917969 115.480469 L 420.542969 115.480469 C 420.542969 116.90625 420.929688 118.074219 421.710938 119.113281 C 422.488281 120.148438 423.527344 120.929688 424.828125 121.578125 C 426.125 122.226562 427.683594 122.484375 429.503906 122.484375 C 431.320312 122.484375 433.007812 122.226562 434.566406 121.707031 C 436.125 121.1875 437.683594 120.539062 439.113281 119.5 L 442.101562 125.597656 C 441.191406 126.375 439.890625 127.023438 438.464844 127.542969 C 437.035156 128.058594 435.476562 128.578125 433.789062 128.839844 C 432.101562 129.226562 430.542969 129.355469 429.113281 129.355469 Z M 421.0625 109.386719 L 435.476562 109.386719 C 435.476562 107.570312 434.828125 106.144531 433.527344 105.105469 C 432.230469 104.070312 430.671875 103.550781 428.59375 103.550781 C 426.515625 103.550781 424.699219 104.070312 423.398438 105.105469 C 421.96875 106.144531 421.191406 107.570312 421.0625 109.386719 Z M 421.0625 109.386719 " fill-opacity="1" fill-rule="nonzero"/></svg>