<?xml version="1.0" encoding="utf-8"?>
<!-- Generator: Adobe Illustrator 25.0.1, SVG Export Plug-In . SVG Version: 6.00 Build 0)  -->
<svg version="1.1" id="Capa_1" xmlns="http://www.w3.org/2000/svg" xmlns:xlink="http://www.w3.org/1999/xlink" x="0px" y="0px"
	 viewBox="0 0 649.7 194.8" style="enable-background:new 0 0 649.7 194.8;" xml:space="preserve">
<style type="text/css">
	.st0{display:none;}
	.st1{display:inline;}
	.st2{fill:url(#SVGID_1_);}
	.st3{opacity:0.68;}
	.st4{fill:url(#SVGID_2_);}
	.st5{fill:url(#SVGID_4_);}
	.st6{display:none;clip-path:url(#SVGID_7_);}
	.st7{fill:url(#SVGID_8_);}
	.st8{clip-path:url(#SVGID_11_);}
	.st9{fill:url(#SVGID_12_);}
	.st10{fill:url(#SVGID_13_);}
	.st11{clip-path:url(#SVGID_15_);}
	.st12{fill:url(#SVGID_16_);}
	.st13{fill:url(#SVGID_17_);stroke:#000000;stroke-miterlimit:10;}
	.st14{clip-path:url(#SVGID_19_);}
	.st15{display:none;fill:#AEE3F3;stroke:#AEE3F3;stroke-miterlimit:10;}
	.st16{fill:#AEE3F3;stroke:#AEE3F3;stroke-miterlimit:10;}
	.st17{display:inline;stroke:#000000;stroke-miterlimit:10;}
	.st18{display:inline;fill:none;stroke:#000000;stroke-miterlimit:10;}
	.st19{font-family:'NotoSansMono-Bold';}
	.st20{font-size:46.5902px;}
	.st21{clip-path:url(#SVGID_21_);}
	.st22{fill:#AEE3F3;}
	.st23{enable-background:new    ;}
</style>
<g id="Capa_1_2_" class="st0">
	<g id="Capa_1_1_" class="st1">
		<g>
			<g>
				<g>
					<g>
						<g>
							<g>
								
									<radialGradient id="SVGID_1_" cx="175.2" cy="92.2" r="141" gradientTransform="matrix(1 0 0 -1 0 196)" gradientUnits="userSpaceOnUse">
									<stop  offset="1.054244e-03" style="stop-color:#AD6EF0"/>
									<stop  offset="1" style="stop-color:#AD6EF0;stop-opacity:0"/>
								</radialGradient>
								<path class="st2" d="M34.2-37.2h282v282h-282C34.2,244.8,34.2-37.2,34.2-37.2z"/>
							</g>
						</g>
					</g>
				</g>
			</g>
		</g>
		<g>
			<g>
				<g>
					<g>
						<g>
							<g class="st3">
								
									<radialGradient id="SVGID_2_" cx="175.2" cy="92.2" r="72.5" gradientTransform="matrix(1 0 0 -1 0 196)" gradientUnits="userSpaceOnUse">
									<stop  offset="1.054244e-03" style="stop-color:#AD6EF0"/>
									<stop  offset="1" style="stop-color:#AD6EF0;stop-opacity:0"/>
								</radialGradient>
								<path class="st4" d="M102.7,31.3h145v145h-145V31.3z"/>
							</g>
						</g>
					</g>
				</g>
			</g>
		</g>
		<g>
			<g>
				<g>
					
						<radialGradient id="SVGID_4_" cx="229.75" cy="149.2" r="101.875" gradientTransform="matrix(1 0 0 -1 0 196)" gradientUnits="userSpaceOnUse">
						<stop  offset="1.054244e-03" style="stop-color:#AEE3F3"/>
						<stop  offset="1" style="stop-color:#AEE3F3;stop-opacity:0"/>
					</radialGradient>
					<rect id="SVGID_3_" x="127.9" y="-55.1" class="st5" width="203.7" height="203.8"/>
				</g>
				<g>
					<defs>
						<rect id="SVGID_5_" x="127.9" y="-55.1" width="203.7" height="203.8"/>
					</defs>
					<clipPath id="SVGID_7_">
						<use xlink:href="#SVGID_5_"  style="overflow:visible;"/>
					</clipPath>
					<g class="st6">
						<g class="st1">
							<g>
								<g>
									
										<radialGradient id="SVGID_8_" cx="339.7" cy="149.3" r="101.8" gradientTransform="matrix(1 0 0 -1 0 196)" gradientUnits="userSpaceOnUse">
										<stop  offset="1.054244e-03" style="stop-color:#AEE3F3"/>
										<stop  offset="0.8961" style="stop-color:#AEE3F3;stop-opacity:0.104"/>
										<stop  offset="1" style="stop-color:#AEE3F3;stop-opacity:0"/>
									</radialGradient>
									<circle id="SVGID_6_" class="st7" cx="339.7" cy="46.7" r="101.8"/>
								</g>
								<g>
									<defs>
										<circle id="SVGID_9_" cx="339.7" cy="46.7" r="101.8"/>
									</defs>
									<clipPath id="SVGID_11_">
										<use xlink:href="#SVGID_9_"  style="overflow:visible;"/>
									</clipPath>
									<g class="st8">
										
											<radialGradient id="SVGID_12_" cx="339.7" cy="149.3" r="101.8" gradientTransform="matrix(1 0 0 -1 0 196)" gradientUnits="userSpaceOnUse">
											<stop  offset="1.054244e-03" style="stop-color:#AEE3F3"/>
											<stop  offset="0.8961" style="stop-color:#AEE3F3;stop-opacity:0.104"/>
											<stop  offset="1" style="stop-color:#AEE3F3;stop-opacity:0"/>
										</radialGradient>
										<path class="st9" d="M237.9-55.1h203.6v203.6H237.9V-55.1z"/>
									</g>
								</g>
							</g>
						</g>
					</g>
				</g>
			</g>
		</g>
		<g class="st0">
			<g class="st1">
				<g>
					
						<radialGradient id="SVGID_13_" cx="290.95" cy="98.15" r="114.3115" gradientTransform="matrix(1 0 0 -1 0 196)" gradientUnits="userSpaceOnUse">
						<stop  offset="1.054244e-03" style="stop-color:#AEE3F3"/>
						<stop  offset="0.8961" style="stop-color:#AEE3F3;stop-opacity:0.104"/>
						<stop  offset="1" style="stop-color:#AEE3F3;stop-opacity:0"/>
					</radialGradient>
					<rect id="SVGID_10_" x="149.6" y="19.4" class="st10" width="282.7" height="156.9"/>
				</g>
				<g>
					<defs>
						<rect id="SVGID_14_" x="149.6" y="19.4" width="282.7" height="156.9"/>
					</defs>
					<clipPath id="SVGID_15_">
						<use xlink:href="#SVGID_14_"  style="overflow:visible;"/>
					</clipPath>
					<g class="st11">
						
							<radialGradient id="SVGID_16_" cx="291.5" cy="97.75" r="113.668" gradientTransform="matrix(1 0 0 -1 0 196)" gradientUnits="userSpaceOnUse">
							<stop  offset="1.054244e-03" style="stop-color:#AEE3F3"/>
							<stop  offset="0.8961" style="stop-color:#AEE3F3;stop-opacity:0.104"/>
							<stop  offset="1" style="stop-color:#AEE3F3;stop-opacity:0"/>
						</radialGradient>
						<path class="st12" d="M341.8,21.1c47.9,0,81.8,15.4,88.3,40.3c4.7,18-5.1,38.8-27.8,58.5c-22.8,19.9-55.9,36.3-93,46.1
							c-23.1,6.1-46.7,9.4-68.2,9.4c-47.9,0-81.8-15.4-88.3-40.3c-4.7-18,5.1-38.8,27.8-58.6c22.8-19.9,55.9-36.3,93-46.1
							C296.7,24.3,320.3,21.1,341.8,21.1 M341.8,20.3c-21.1,0-44.4,3-68.4,9.4c-77,20.5-131.3,67.8-121.3,105.6
							c6.9,26.1,42.4,40.9,89.1,40.9c21.1,0,44.4-3,68.4-9.4c77-20.5,131.3-67.8,121.3-105.6C424,35.1,388.5,20.3,341.8,20.3z"/>
					</g>
				</g>
			</g>
		</g>
		<g>
			<g>
				<g>
					
						<radialGradient id="SVGID_17_" cx="179.45" cy="98.55" r="119.7249" gradientTransform="matrix(1 0 0 -1 0 196)" gradientUnits="userSpaceOnUse">
						<stop  offset="1.054244e-03" style="stop-color:#AEE3F3"/>
						<stop  offset="0.8961" style="stop-color:#AEE3F3;stop-opacity:0.104"/>
						<stop  offset="1" style="stop-color:#AEE3F3;stop-opacity:0"/>
					</radialGradient>
					<path class="st13" d="M329.6,41.4c-21.2,0.5-21.6,0.9-22.1,22.2c-0.5-21.3-0.9-21.7-22.1-22.2c21.2-0.5,21.6-0.9,22.1-22.2
						C308,40.5,308.4,40.9,329.6,41.4z M73.5,153.5c-21.2,0.5-21.6,0.9-22.1,22.2c-0.5-21.3-0.9-21.7-22.1-22.2
						c21.2-0.5,21.6-0.9,22.1-22.2C51.9,152.6,52.3,153,73.5,153.5z"/>
				</g>
			</g>
		</g>
	</g>
	<g id="Capa_3" class="st1">
		<g>
			<g transform="translate(111.35324, 183.560614)">
				<g>
					<path d="M80.1-125.3h13.3c1.7,0,3.3,0.3,4.8,0.9s2.7,1.4,3.8,2.4c1,1,1.9,2.2,2.4,3.7c0.6,1.4,0.9,3,0.9,4.6
						c0,1.7-0.3,3.3-0.9,4.7s-1.4,2.6-2.4,3.6s-2.3,1.8-3.8,2.4s-3.1,0.9-4.8,0.9h-6.8v10.6h-6.5V-125.3z M92.6-107.9
						c1.8,0,3.3-0.5,4.4-1.6s1.6-2.5,1.6-4.2s-0.6-3.1-1.6-4.2c-1.1-1.1-2.6-1.6-4.4-1.6h-6v11.6C86.6-107.9,92.6-107.9,92.6-107.9z
						"/>
				</g>
			</g>
		</g>
		<g>
			<g transform="translate(133.107885, 183.560614)">
				<g>
					<path d="M87.8-96.7h6v-15h-5.1v-5.3h9l1,3.4h0.7c0.5-1.2,1.3-2.1,2.5-2.6s2.4-0.8,3.6-0.8h5.1v5.6h-4.4c-2.1,0-3.7,0.6-4.8,1.7
						c-1.1,1.1-1.7,2.7-1.7,4.6v8.5h8.5v5.3H87.8V-96.7z"/>
				</g>
			</g>
		</g>
		<g>
			<g transform="translate(154.86253, 183.560614)">
				<g>
					<path d="M106.4-90.9c-1.8,0-3.5-0.3-5-0.9s-2.8-1.5-3.9-2.6c-1.1-1.2-1.9-2.5-2.5-4.2s-0.9-3.5-0.9-5.6s0.3-3.9,0.9-5.6
						c0.6-1.6,1.4-3,2.5-4.2s2.4-2,3.9-2.6s3.2-0.9,5-0.9s3.5,0.3,5,0.9s2.8,1.5,3.9,2.6s1.9,2.5,2.5,4.2c0.6,1.6,0.9,3.5,0.9,5.6
						s-0.3,3.9-0.9,5.6c-0.6,1.6-1.5,3-2.5,4.2c-1.1,1.1-2.4,2-3.9,2.6S108.2-90.9,106.4-90.9z M106.4-96.2c1.9,0,3.5-0.7,4.7-2
						s1.8-3.3,1.8-6s-0.6-4.7-1.8-6c-1.2-1.3-2.8-2-4.7-2c-1.9,0-3.5,0.7-4.7,2s-1.8,3.3-1.8,6s0.6,4.7,1.8,6
						C102.9-96.9,104.5-96.2,106.4-96.2z"/>
				</g>
			</g>
		</g>
		<g>
			<g transform="translate(176.617175, 183.560614)">
				<g>
					<path d="M110.8-81.7c-1.4,0-2.8-0.2-4-0.6s-2.2-1-3.1-1.8c-0.8-0.8-1.5-1.7-2-2.8c-0.5-1.1-0.7-2.2-0.7-3.5h5.8
						c0.1,1.2,0.5,2.1,1.2,2.6s1.6,0.8,2.7,0.8s2-0.4,2.6-1.1c0.7-0.7,1-1.9,1-3.5v-20.1h-7.7v-5.3h13.5v25.4c0,1.5-0.2,2.9-0.7,4.1
						s-1.1,2.3-1.9,3.1c-0.8,0.9-1.8,1.5-3,2C113.4-82,112.2-81.7,110.8-81.7z M117.1-120.2c-1.1,0-2-0.3-2.6-1
						c-0.7-0.7-1-1.5-1-2.6s0.3-2,1-2.6c0.7-0.7,1.5-1,2.6-1s2,0.3,2.6,1c0.7,0.7,1,1.5,1,2.6s-0.3,2-1,2.6
						C119-120.5,118.2-120.2,117.1-120.2z"/>
				</g>
			</g>
		</g>
		<g>
			<g transform="translate(198.371819, 183.560614)">
				<g>
					<path d="M121.2-90.9c-1.9,0-3.7-0.3-5.2-0.9s-2.9-1.5-4-2.6s-1.9-2.5-2.5-4.1c-0.6-1.7-0.9-3.5-0.9-5.7s0.3-4,0.9-5.6
						c0.6-1.7,1.4-3,2.5-4.2c1.1-1.1,2.4-2,4-2.6s3.3-0.9,5.2-0.9c1.8,0,3.4,0.3,4.9,0.9s2.8,1.4,3.8,2.5c1.1,1.1,1.9,2.4,2.5,4
						c0.6,1.5,0.9,3.3,0.9,5.2c0,0.4,0,0.7,0,1s-0.1,0.6-0.1,0.9s-0.1,0.6-0.1,0.8h-18.7c0.3,1.7,0.9,3.1,2,4.3
						c1.1,1.2,2.6,1.7,4.5,1.7c1.6,0,2.8-0.3,3.7-0.9c0.9-0.6,1.5-1.3,1.9-2h5.8c-0.2,0.9-0.6,1.8-1.1,2.8s-1.2,1.8-2.1,2.6
						c-0.9,0.8-1.9,1.5-3.2,2C124.5-91.2,123-90.9,121.2-90.9z M127.5-106.4c-0.2-1.7-0.9-3.1-2-4.2s-2.6-1.6-4.5-1.6
						s-3.4,0.5-4.5,1.6s-1.7,2.5-2,4.2H127.5z"/>
				</g>
			</g>
		</g>
		<g>
			<g transform="translate(220.126464, 183.560614)">
				<g>
					<path d="M128.4-90.9c-1.8,0-3.5-0.3-5-0.9s-2.8-1.5-3.9-2.6c-1.1-1.2-1.9-2.5-2.5-4.2s-0.9-3.5-0.9-5.6s0.3-3.9,0.9-5.6
						c0.6-1.6,1.4-3,2.5-4.2s2.4-2,3.9-2.6s3.2-0.9,5-0.9c3,0,5.5,0.8,7.5,2.4s3.3,3.8,4.1,6.8h-5.8c-0.5-1.2-1.2-2.2-2.2-2.9
						c-1-0.7-2.2-1-3.5-1c-1.9,0-3.5,0.7-4.7,2s-1.8,3.3-1.8,6s0.6,4.7,1.8,6c1.2,1.3,2.8,2,4.7,2c1.3,0,2.5-0.3,3.5-1
						s1.8-1.6,2.2-2.9h5.8c-0.7,2.9-2.1,5.2-4.1,6.8C134-91.7,131.5-90.9,128.4-90.9z"/>
				</g>
			</g>
		</g>
		<g>
			<g transform="translate(241.881109, 183.560614)">
				<g>
					<path d="M138.3-90.9c-1.4,0-2.7-0.2-3.8-0.7c-1.2-0.5-2.1-1.1-3-2c-0.8-0.9-1.5-1.9-1.9-3.1c-0.5-1.2-0.7-2.6-0.7-4.1v-10.9
						h-6.3v-5.3h6.3l1-6.8h4.8v6.8h9.4v5.3h-9.4v10.9c0,1.6,0.3,2.8,1,3.5s1.5,1.1,2.6,1.1s2-0.3,2.6-0.8c0.7-0.6,1.1-1.6,1.2-3h5.8
						c0,1.4-0.2,2.6-0.7,3.8c-0.5,1.1-1.2,2.1-2,2.9c-0.9,0.8-1.9,1.4-3.1,1.9C141-91.2,139.7-90.9,138.3-90.9z"/>
				</g>
			</g>
		</g>
		<g>
			<g transform="translate(122.228239, 224.810611)">
				<g>
					<path d="M95.3-77.2c-1.8,0-3.4-0.2-4.9-0.7s-2.9-1.1-4.1-2s-2.1-2-2.8-3.3c-0.7-1.3-1.1-2.9-1.2-4.6h6.5c0.3,1.3,1,2.5,2.1,3.4
						s2.6,1.4,4.5,1.4c2.3,0,3.9-0.5,5-1.4c1-0.9,1.6-2,1.6-3.2c0-1.1-0.5-1.9-1.4-2.4s-2-0.9-3.4-1.3c-1.4-0.3-2.8-0.7-4.4-1
						s-3.1-0.9-4.4-1.6c-1.4-0.7-2.5-1.7-3.4-3s-1.4-3-1.4-5.2c0-1.6,0.3-3.1,0.9-4.3c0.6-1.2,1.5-2.3,2.5-3.1
						c1.1-0.8,2.3-1.5,3.8-1.9c1.4-0.4,3-0.6,4.6-0.6c1.9,0,3.6,0.2,5.1,0.8c1.5,0.5,2.7,1.2,3.8,2.1c1,0.9,1.8,2,2.4,3.2
						s0.9,2.5,1.1,3.9h-6.5c-0.1-0.6-0.3-1.1-0.6-1.6c-0.2-0.5-0.6-0.9-1-1.3s-1-0.7-1.6-0.9c-0.6-0.2-1.4-0.3-2.3-0.3
						c-1,0-1.9,0.1-2.6,0.4c-0.7,0.2-1.3,0.6-1.7,1s-0.7,0.8-0.9,1.3c-0.2,0.5-0.3,1-0.3,1.5c0,1.1,0.4,2,1.4,2.6
						c0.9,0.6,2,1.1,3.4,1.4c1.4,0.4,2.8,0.7,4.4,1.1c1.6,0.3,3.1,0.9,4.4,1.6c1.4,0.7,2.5,1.7,3.4,2.9c0.9,1.2,1.4,2.9,1.4,5
						c0,3.2-1.1,5.7-3.3,7.6C102.8-78.1,99.6-77.2,95.3-77.2z"/>
				</g>
			</g>
		</g>
		<g>
			<g transform="translate(143.982884, 224.810611)">
				<g>
					<path d="M92.2-103.3h5.1l0.5,2.7H98c0.1-0.2,0.4-0.5,0.8-0.8s0.9-0.7,1.5-1c0.6-0.4,1.3-0.7,2-0.9c0.8-0.3,1.6-0.4,2.5-0.4
						c1.5,0,2.9,0.3,4.2,0.8c1.3,0.5,2.4,1.4,3.3,2.5s1.6,2.5,2.1,4.1c0.5,1.7,0.8,3.6,0.8,5.9c0,2.2-0.3,4.2-0.8,5.9
						c-0.5,1.7-1.2,3.1-2.1,4.1c-0.9,1.1-2,1.9-3.3,2.5c-1.3,0.5-2.7,0.8-4.2,0.8c-0.9,0-1.7-0.1-2.4-0.4c-0.7-0.2-1.4-0.5-1.9-0.8
						s-1-0.6-1.4-0.9c-0.3-0.3-0.6-0.6-0.8-0.8h-0.2v12.1h-5.8L92.2-103.3L92.2-103.3z M103.5-82.5c0.8,0,1.5-0.2,2.2-0.5
						s1.3-0.8,1.9-1.5c0.5-0.7,1-1.5,1.3-2.5s0.5-2.2,0.5-3.5s-0.2-2.5-0.5-3.5s-0.7-1.8-1.3-2.5c-0.5-0.7-1.1-1.2-1.9-1.5
						c-0.7-0.3-1.5-0.5-2.2-0.5c-1.7,0-3.1,0.7-4.2,2s-1.6,3.3-1.6,6s0.5,4.7,1.6,6S101.8-82.5,103.5-82.5z"/>
				</g>
			</g>
		</g>
		<g>
			<g transform="translate(165.737529, 224.810611)">
				<g>
					<path d="M99.4-111.5h5.8v10.4h0.2c0.7-0.8,1.6-1.5,2.6-1.9c1-0.5,2.2-0.7,3.4-0.7c2.9,0,5.2,0.9,6.9,2.6
						c1.7,1.8,2.5,4.3,2.5,7.8v15.7H115v-15.5c0-1.7-0.4-3-1.3-3.9s-2.1-1.4-3.5-1.4c-1.5,0-2.7,0.5-3.6,1.5c-1,1-1.4,2.3-1.4,3.8
						v15.5h-5.8C99.4-77.6,99.4-111.5,99.4-111.5z"/>
				</g>
			</g>
		</g>
		<g>
			<g transform="translate(187.492174, 224.810611)">
				<g>
					<path d="M117.5-77.2c-1.9,0-3.7-0.3-5.2-0.9s-2.9-1.5-4-2.6s-1.9-2.5-2.5-4.1c-0.6-1.7-0.9-3.5-0.9-5.7c0-2.1,0.3-4,0.9-5.6
						c0.6-1.7,1.4-3,2.5-4.2c1.1-1.1,2.4-2,4-2.6s3.3-0.9,5.2-0.9c1.8,0,3.4,0.3,4.9,0.9s2.8,1.4,3.8,2.5c1.1,1.1,1.9,2.4,2.5,4
						c0.6,1.5,0.9,3.3,0.9,5.2c0,0.4,0,0.7,0,1s-0.1,0.6-0.1,0.9s-0.1,0.6-0.1,0.8h-18.6c0.3,1.7,0.9,3.1,2,4.3
						c1.1,1.2,2.6,1.7,4.5,1.7c1.6,0,2.8-0.3,3.7-0.9c0.9-0.6,1.5-1.3,1.9-2h5.8c-0.2,0.9-0.6,1.8-1.1,2.8c-0.5,1-1.2,1.8-2.1,2.6
						c-0.9,0.8-1.9,1.5-3.2,2C120.9-77.4,119.3-77.2,117.5-77.2z M123.8-92.7c-0.2-1.7-0.9-3.1-2-4.2s-2.6-1.6-4.5-1.6
						s-3.4,0.5-4.5,1.6s-1.7,2.5-2,4.2H123.8z"/>
				</g>
			</g>
		</g>
		<g>
			<g transform="translate(209.246819, 224.810611)">
				<g>
					<path d="M113.2-83h6v-15h-5.1v-5.3h9l1,3.4h0.7c0.5-1.2,1.3-2.1,2.5-2.6c1.2-0.5,2.4-0.8,3.6-0.8h5.1v5.6h-4.4
						c-2.1,0-3.7,0.6-4.8,1.7c-1.1,1.1-1.7,2.7-1.7,4.6v8.5h8.5v5.3h-20.4C113.2-77.6,113.2-83,113.2-83z"/>
				</g>
			</g>
		</g>
		<g>
			<g transform="translate(231.001464, 224.810611)">
				<g>
					<path d="M132.1-77.2c-1.9,0-3.7-0.3-5.2-0.9s-2.9-1.5-4-2.6s-1.9-2.5-2.5-4.1c-0.6-1.7-0.9-3.5-0.9-5.7c0-2.1,0.3-4,0.9-5.6
						c0.6-1.7,1.4-3,2.5-4.2c1.1-1.1,2.4-2,4-2.6c1.6-0.6,3.3-0.9,5.2-0.9c1.8,0,3.4,0.3,4.9,0.9s2.8,1.4,3.8,2.5
						c1.1,1.1,1.9,2.4,2.5,4c0.6,1.5,0.9,3.3,0.9,5.2c0,0.4,0,0.7,0,1s-0.1,0.6-0.1,0.9s-0.1,0.6-0.1,0.8h-18.7
						c0.3,1.7,0.9,3.1,2,4.3c1.1,1.2,2.6,1.7,4.5,1.7c1.6,0,2.8-0.3,3.7-0.9s1.5-1.3,1.9-2h5.8c-0.2,0.9-0.6,1.8-1.1,2.8
						s-1.2,1.8-2.1,2.6c-0.9,0.8-1.9,1.5-3.2,2C135.4-77.4,133.9-77.2,132.1-77.2z M138.3-92.7c-0.2-1.7-0.9-3.1-2-4.2
						s-2.6-1.6-4.5-1.6s-3.4,0.5-4.5,1.6s-1.7,2.5-2,4.2H138.3z"/>
				</g>
			</g>
		</g>
	</g>
	<g id="Capa_2_1_" class="st1">
	</g>
</g>
<g id="Capa_5" class="st0">
	<g class="st1">
		<g>
			<g>
				<defs>
					<rect id="SVGID_18_" x="69.4" y="19.1" width="282.7" height="156.9"/>
				</defs>
				<clipPath id="SVGID_19_">
					<use xlink:href="#SVGID_18_"  style="overflow:visible;"/>
				</clipPath>
				<g class="st14">
					<path d="M261.6,20.8c47.9,0,81.8,15.4,88.3,40.3c4.7,18-5.1,38.8-27.8,58.5c-22.8,19.9-55.9,36.3-93,46.1
						c-23.1,6.1-46.7,9.4-68.2,9.4c-47.9,0-81.8-15.4-88.3-40.3c-4.7-18,5.1-38.8,27.8-58.6c22.8-19.9,55.9-36.3,93-46.1
						C216.5,24,240.1,20.8,261.6,20.8 M261.6,20c-21.1,0-44.4,3-68.4,9.4C116.2,49.9,61.9,97.2,71.9,135
						c6.9,26.1,42.4,40.9,89.1,40.9c21.1,0,44.4-3,68.4-9.4c77-20.5,131.3-67.8,121.3-105.6C343.8,34.8,308.3,20,261.6,20z"/>
				</g>
			</g>
		</g>
	</g>
	<g class="st1">
		<path d="M359.4,41.1c-21.2,0.5-21.6,0.9-22.1,22.2c-0.5-21.3-0.9-21.7-22.1-22.2c21.2-0.5,21.6-0.9,22.1-22.2
			C337.8,40.2,338.2,40.6,359.4,41.1z M103.3,153.1c-21.2,0.5-21.6,0.9-22.1,22.2c-0.5-21.3-0.9-21.7-22.1-22.2
			c21.2-0.5,21.6-0.9,22.1-22.2C81.7,152.2,82.1,152.6,103.3,153.1z"/>
	</g>
</g>
<g id="Capa_6">
	<path class="st15" d="M117.7,65.1C96.5,65.6,96.1,66,95.6,87.3C95.1,66,94.7,65.6,73.5,65.1c21.2-0.5,21.6-0.9,22.1-22.2
		C96.1,64.2,96.5,64.6,117.7,65.1z"/>
	<path class="st15" d="M73.6,106.9c-21.2,0.5-21.6,0.9-22.1,22.2c-0.5-21.3-0.9-21.7-22.1-22.2c21.2-0.5,21.6-0.9,22.1-22.2
		C52,106,52.4,106.4,73.6,106.9z"/>
	<path class="st16" d="M426.7,47.1c-21.2,0.5-21.6,0.9-22.1,22.2c-0.5-21.3-0.9-21.7-22.1-22.2c21.2-0.5,21.6-0.9,22.1-22.2
		C405.1,46.2,405.5,46.6,426.7,47.1z"/>
	<path class="st16" d="M260.6,143.9c-21.2,0.5-21.6,0.9-22.1,22.2c-0.5-21.3-0.9-21.7-22.1-22.2c21.2-0.5,21.6-0.9,22.1-22.2
		C239,143,239.4,143.4,260.6,143.9z"/>
	<path class="st15" d="M574.7,97.9c-21.2,0.5-21.6,0.9-22.1,22.2c-0.5-21.3-0.9-21.7-22.1-22.2c21.2-0.5,21.6-0.9,22.1-22.2
		C553.2,97,553.6,97.4,574.7,97.9z"/>
	<path class="st15" d="M619.1,75.2c-21.2,0.5-21.6,0.9-22.1,22.2c-0.5-21.3-0.9-21.7-22.1-22.2c21.2-0.5,21.6-0.9,22.1-22.2
		C597.5,74.3,598,74.7,619.1,75.2z"/>
</g>
<g id="Capa_6_copia" class="st0">
	<path class="st17" d="M128,121.5c-21.2,0.5-21.6,0.9-22.1,22.2c-0.5-21.3-0.9-21.7-22.1-22.2c21.2-0.5,21.6-0.9,22.1-22.2
		C106.4,120.6,106.8,121,128,121.5z"/>
	<path class="st17" d="M588.8,70c-21.2,0.5-21.6,0.9-22.1,22.2c-0.5-21.3-0.9-21.7-22.1-22.2c21.2-0.5,21.6-0.9,22.1-22.2
		C567.2,69.1,567.6,69.5,588.8,70z"/>
	<ellipse class="st18" cx="330.5" cy="93.3" rx="263.9" ry="54.2"/>
</g>
<g id="Capa_2_2_" class="st0">
	<g class="st1">
		<text transform="matrix(1 0 0 1 122.581 109.1784)" class="st19 st20">Project Sphere</text>
	</g>
</g>
<g id="Capa_2_copia" class="st0">
	<g class="st1">
		<text transform="matrix(1 0 0 1 191.2289 90.9193)" class="st19 st20">Project</text>
		<text transform="matrix(1 0 0 1 204.3289 150.7193)" class="st19 st20">Sphere</text>
	</g>
</g>
<g id="Capa_2_copia_2">
	<g class="st0">
		<text transform="matrix(1 0 0 1 192.4653 90.9193)" class="st1 st19 st20">Project</text>
		<text transform="matrix(1 0 0 1 220.4653 146.8193)" class="st1 st19 st20">Cloud</text>
	</g>
</g>
<g>
	<g>
		<g>
			<defs>
				<rect id="SVGID_20_" x="220.8" y="39.1" width="208.9" height="115.9"/>
			</defs>
			<clipPath id="SVGID_21_">
				<use xlink:href="#SVGID_20_"  style="overflow:visible;"/>
			</clipPath>
			<g class="st21">
				<path class="st22" d="M362.7,40.3c35.4,0,60.4,11.4,65.2,29.8c3.5,13.3-3.8,28.7-20.5,43.2c-16.8,14.7-41.3,26.8-68.7,34.1
					c-17.1,4.5-34.5,6.9-50.4,6.9c-35.4,0-60.4-11.4-65.2-29.8c-3.5-13.3,3.8-28.7,20.5-43.3c16.8-14.7,41.3-26.8,68.7-34.1
					C329.4,42.8,346.8,40.3,362.7,40.3 M362.7,39.8c-15.6,0-32.8,2.2-50.5,6.9c-56.9,15.1-97,50.1-89.6,78
					c5.1,19.3,31.3,30.2,65.8,30.2c15.6,0,32.8-2.2,50.5-6.9c56.9-15.1,97-50.1,89.6-78C423.4,50.7,397.2,39.8,362.7,39.8z"/>
			</g>
		</g>
	</g>
	<g>
		<g>
			<defs>
				<rect id="SVGID_22_" x="212.9" y="39" width="222.5" height="116"/>
			</defs>
			<clipPath id="SVGID_23_">
				<use xlink:href="#SVGID_22_"  style="overflow:visible;"/>
			</clipPath>
		</g>
	</g>
</g>
<g id="Capa_2_copia_3">
	<g>
		<g>
			<g class="st23">
				<path d="M152.6,109.2V76.6h12.6c2.4,0,4.5,0.4,6.4,1.2c1.8,0.8,3.3,2,4.4,3.6c1.1,1.6,1.6,3.5,1.6,5.7s-0.5,4.1-1.5,5.7
					s-2.4,2.8-4.3,3.6s-4.1,1.2-6.7,1.2h-5.6v11.6L152.6,109.2L152.6,109.2z M159.5,91.8h5.5c1.8,0,3.2-0.4,4.2-1.1s1.5-1.9,1.5-3.5
					s-0.5-2.8-1.5-3.6c-1-0.8-2.4-1.2-4.1-1.2h-5.5L159.5,91.8L159.5,91.8z"/>
				<path d="M182.2,109.2V85.7h6.8v2.9c0.8-1.3,1.7-2.2,2.9-2.8c1.2-0.6,2.5-0.8,3.9-0.8c0.5,0,1,0,1.4,0.1s0.8,0.1,1.2,0.2l-0.8,7
					c-0.5-0.2-1-0.3-1.6-0.4s-1.1-0.2-1.7-0.2c-1.6,0-2.9,0.5-3.9,1.4s-1.5,2.2-1.5,3.9v12.2C188.9,109.2,182.2,109.2,182.2,109.2z"
					/>
				<path d="M213.4,109.9c-2.5,0-4.8-0.6-6.7-1.7c-2-1.1-3.5-2.6-4.6-4.5s-1.7-4-1.7-6.2c0-1.7,0.3-3.2,1-4.7c0.6-1.5,1.5-2.8,2.7-4
					s2.5-2.1,4.1-2.7c1.6-0.7,3.3-1,5.2-1c2.5,0,4.8,0.6,6.7,1.7s3.5,2.6,4.6,4.5s1.7,4,1.7,6.2c0,1.6-0.3,3.2-1,4.7
					c-0.6,1.5-1.5,2.8-2.7,4s-2.5,2.1-4.1,2.7C217,109.5,215.3,109.9,213.4,109.9z M213.3,104c1.2,0,2.3-0.3,3.2-0.8
					s1.7-1.3,2.2-2.3s0.8-2.1,0.8-3.5s-0.3-2.5-0.8-3.5s-1.3-1.7-2.2-2.3c-0.9-0.5-2-0.8-3.2-0.8s-2.3,0.3-3.2,0.8s-1.7,1.3-2.2,2.3
					s-0.8,2.2-0.8,3.5c0,1.4,0.3,2.5,0.8,3.5s1.3,1.7,2.2,2.3C211.1,103.7,212.1,104,213.3,104z"/>
				<path d="M229.8,119.7c-1.2,0-2.2-0.1-3-0.3c-0.8-0.2-1.6-0.5-2.4-0.9l1.4-5.1c0.4,0.2,0.8,0.4,1.2,0.5s0.8,0.2,1.4,0.2
					c0.9,0,1.6-0.3,2-0.8s0.6-1.3,0.6-2.3V85.7h6.8v25.7c0,1.7-0.3,3.1-1,4.3c-0.7,1.2-1.6,2.2-2.8,2.9S231.4,119.7,229.8,119.7z
					 M234.4,81.9c-1.1,0-2.1-0.4-2.9-1.1c-0.8-0.7-1.2-1.6-1.2-2.8c0-1.2,0.4-2.1,1.2-2.9c0.8-0.7,1.8-1.1,2.9-1.1
					c1.1,0,2.1,0.4,2.9,1.1s1.2,1.7,1.2,2.9c0,1.2-0.4,2.1-1.2,2.8C236.5,81.6,235.6,81.9,234.4,81.9z"/>
				<path d="M255.4,109.9c-2.6,0-4.8-0.5-6.8-1.6c-1.9-1-3.5-2.5-4.5-4.4c-1.1-1.9-1.6-4-1.6-6.5c0-1.8,0.3-3.5,0.9-5
					c0.6-1.5,1.5-2.8,2.7-3.9c1.1-1.1,2.5-2,4-2.6s3.2-0.9,5.1-0.9c2,0,3.8,0.4,5.4,1.1s2.9,1.7,3.9,3s1.8,2.8,2.2,4.5
					s0.4,3.6,0.1,5.6h-18c0,1.1,0.3,2,0.9,2.8s1.4,1.4,2.4,1.9s2.2,0.7,3.6,0.7c1.4,0,2.7-0.2,3.9-0.6c1.2-0.4,2.4-0.9,3.5-1.7
					l2.3,4.7c-0.7,0.6-1.7,1.1-2.8,1.5c-1.1,0.4-2.3,0.8-3.6,1C257.8,109.8,256.6,109.9,255.4,109.9z M249.2,94.5h11.1
					c0-1.4-0.5-2.5-1.5-3.3c-0.9-0.8-2.2-1.2-3.8-1.2c-1.6,0-3,0.4-4,1.2C250,92,249.4,93.1,249.2,94.5z"/>
				<path d="M282.8,109.9c-2.5,0-4.7-0.5-6.7-1.6s-3.5-2.6-4.6-4.4c-1.1-1.9-1.7-4-1.7-6.4c0-1.8,0.3-3.4,1-5c0.7-1.5,1.6-2.8,2.8-4
					c1.2-1.1,2.6-2,4.2-2.6s3.4-0.9,5.2-0.9c1.7,0,3.3,0.2,4.8,0.7s2.8,1.2,4,2.1l-3.1,5.1c-0.7-0.7-1.6-1.2-2.5-1.5
					s-1.9-0.5-2.9-0.5c-1.4,0-2.6,0.3-3.6,0.8s-1.8,1.3-2.4,2.2c-0.6,1-0.8,2.2-0.8,3.5c0,2.1,0.6,3.7,1.8,4.8
					c1.2,1.2,2.9,1.7,5,1.7c1.1,0,2.2-0.2,3.2-0.6s1.9-1,2.7-1.7l2.9,5.1c-1.3,1-2.8,1.7-4.4,2.3
					C286.2,109.6,284.5,109.9,282.8,109.9z"/>
				<path d="M293.7,91.1v-5.5h5.5v5.5H293.7z M306.6,109.9c-2.5,0-4.5-0.7-6-2.1s-2.2-3.6-2.2-6.4V78.9h6.8v6.8h5.8v5.5h-5.8v9
					c0,1.4,0.3,2.4,0.9,2.9c0.6,0.6,1.3,0.8,2.3,0.8c0.5,0,1-0.1,1.5-0.2s0.9-0.3,1.3-0.5l1,5.4c-0.7,0.4-1.5,0.7-2.5,1
					S307.7,109.9,306.6,109.9z"/>
				<path d="M339.8,109.9c-2.4,0-4.7-0.3-7-1s-4.2-1.7-5.8-3.1l3.3-5.2c0.7,0.7,1.6,1.3,2.6,1.8s2.2,0.9,3.4,1.2
					c1.2,0.3,2.4,0.4,3.5,0.4c1.8,0,3.2-0.3,4.3-0.9s1.7-1.5,1.7-2.7c0-1-0.4-1.8-1.2-2.4c-0.8-0.6-2.2-1.3-4.3-1.9l-3-0.8
					c-3.3-0.9-5.6-2.2-7.1-3.7c-1.4-1.6-2.2-3.5-2.2-5.7c0-1.4,0.3-2.8,0.9-4s1.5-2.3,2.6-3.2c1.1-0.9,2.4-1.6,3.9-2.1
					s3.1-0.7,4.9-0.7c2.4,0,4.6,0.3,6.6,1s3.7,1.6,5,2.8l-3.4,5c-0.6-0.6-1.4-1.1-2.2-1.6c-0.9-0.5-1.8-0.8-2.9-1.1
					c-1-0.3-2.1-0.4-3.1-0.4c-1.1,0-2.1,0.2-2.9,0.5s-1.5,0.7-2,1.3c-0.5,0.6-0.7,1.2-0.7,2c0,0.6,0.2,1.1,0.5,1.5s0.9,0.8,1.7,1.2
					c0.8,0.4,1.9,0.8,3.3,1.2l3.1,0.9c3.2,0.9,5.6,2.2,7,3.6c1.5,1.5,2.2,3.4,2.2,5.7c0,2-0.5,3.8-1.5,5.3s-2.5,2.7-4.4,3.6
					C344.7,109.4,342.4,109.9,339.8,109.9z"/>
				<path d="M357.6,119V85.7h5.9v2.9c0.9-1.1,2-1.9,3.4-2.6s3-1,5-1c2.3,0,4.3,0.5,6.1,1.6c1.8,1,3.2,2.5,4.2,4.4s1.5,4,1.5,6.5
					c0,1.8-0.3,3.4-0.9,4.9s-1.4,2.8-2.5,4c-1.1,1.1-2.3,2-3.8,2.7c-1.4,0.6-3,1-4.8,1c-1.5,0-2.9-0.3-4.2-0.8
					c-1.2-0.5-2.3-1.2-3.2-2.1v12h-6.7V119z M370.6,104c1.2,0,2.3-0.3,3.2-0.8c0.9-0.5,1.7-1.3,2.2-2.3s0.8-2.1,0.8-3.5
					s-0.3-2.5-0.8-3.5s-1.3-1.7-2.2-2.3c-0.9-0.5-2-0.8-3.2-0.8s-2.3,0.3-3.2,0.8c-0.9,0.5-1.7,1.3-2.2,2.3s-0.8,2.1-0.8,3.5
					s0.3,2.5,0.8,3.5s1.3,1.7,2.2,2.3C368.3,103.7,369.4,104,370.6,104z"/>
				<path d="M388.3,109.2V75.6h6.8v15.1l-1.4-1.7c1-1.3,2.3-2.3,3.7-3.1c1.4-0.7,3-1.1,4.6-1.1c2.2,0,4,0.4,5.5,1.3s2.5,2,3.3,3.4
					c0.7,1.4,1.1,2.9,1.1,4.5v15H405V96.1c0-1.5-0.4-2.6-1.3-3.6c-0.9-0.9-2.1-1.4-3.6-1.4c-1,0-1.9,0.2-2.7,0.6
					c-0.8,0.4-1.3,1-1.7,1.8c-0.4,0.8-0.6,1.7-0.6,2.8V109h-6.8V109.2z"/>
				<path d="M429.2,109.9c-2.6,0-4.8-0.5-6.8-1.6c-1.9-1-3.5-2.5-4.5-4.4c-1.1-1.9-1.6-4-1.6-6.5c0-1.8,0.3-3.5,0.9-5
					s1.5-2.8,2.7-3.9s2.5-2,4-2.6s3.2-0.9,5.1-0.9c2,0,3.8,0.4,5.4,1.1s2.9,1.7,3.9,3s1.8,2.8,2.2,4.5c0.4,1.7,0.4,3.6,0.1,5.6h-18
					c0,1.1,0.3,2,0.9,2.8s1.4,1.4,2.4,1.9s2.2,0.7,3.6,0.7s2.7-0.2,3.9-0.6c1.2-0.4,2.4-0.9,3.5-1.7l2.3,4.7
					c-0.7,0.6-1.7,1.1-2.8,1.5c-1.1,0.4-2.3,0.8-3.6,1C431.5,109.8,430.3,109.9,429.2,109.9z M423,94.5h11.1c0-1.4-0.5-2.5-1.5-3.3
					s-2.2-1.2-3.8-1.2s-3,0.4-4,1.2C423.7,92,423.1,93.1,423,94.5z"/>
				<path d="M445.5,109.2V85.7h6.8v2.9c0.8-1.3,1.7-2.2,2.9-2.8c1.2-0.6,2.5-0.8,3.9-0.8c0.5,0,1,0,1.4,0.1s0.8,0.1,1.2,0.2l-0.8,7
					c-0.5-0.2-1-0.3-1.6-0.4s-1.1-0.2-1.7-0.2c-1.6,0-2.9,0.5-3.9,1.4s-1.5,2.2-1.5,3.9v12.2C452.2,109.2,445.5,109.2,445.5,109.2z"
					/>
				<path d="M476.7,109.9c-2.6,0-4.8-0.5-6.8-1.6c-1.9-1-3.5-2.5-4.5-4.4c-1.1-1.9-1.6-4-1.6-6.5c0-1.8,0.3-3.5,0.9-5
					s1.5-2.8,2.7-3.9s2.5-2,4-2.6s3.2-0.9,5.1-0.9c2,0,3.8,0.4,5.4,1.1s2.9,1.7,3.9,3s1.8,2.8,2.2,4.5c0.4,1.7,0.4,3.6,0.1,5.6h-18
					c0,1.1,0.3,2,0.9,2.8s1.4,1.4,2.4,1.9s2.2,0.7,3.6,0.7s2.7-0.2,3.9-0.6c1.2-0.4,2.4-0.9,3.5-1.7l2.3,4.7
					c-0.7,0.6-1.7,1.1-2.8,1.5c-1.1,0.4-2.3,0.8-3.6,1C479,109.8,477.8,109.9,476.7,109.9z M470.5,94.5h11.1c0-1.4-0.5-2.5-1.5-3.3
					s-2.2-1.2-3.8-1.2s-3,0.4-4,1.2C471.2,92,470.6,93.1,470.5,94.5z"/>
			</g>
		</g>
	</g>
</g>
</svg>
